<?xml version="1.0" standalone="no"?>
<!DOCTYPE svg PUBLIC "-//W3C//DTD SVG 20010904//EN"
 "http://www.w3.org/TR/2001/REC-SVG-20010904/DTD/svg10.dtd">
<svg width="40"
                  height="46"
                  viewBox="0 0 50 56"
                  fill="none"">

<g transform="translate(0.000000,512.000000) scale(0.100000,-0.100000)"
fill="#000000" stroke="none">
<path d="M1382 4617 c-51 -16 -118 -81 -139 -135 -16 -43 -18 -84 -18 -452 l0
-405 1333 -3 1332 -2 0 417 c0 384 -2 421 -19 459 -23 49 -88 107 -140 122
-52 16 -2300 15 -2349 -1z"/>
<path d="M892 4127 c-51 -16 -118 -81 -139 -135 -14 -38 -18 -77 -18 -207 l0
-160 133 -3 132 -3 0 261 0 260 -37 -1 c-21 -1 -53 -6 -71 -12z"/>
<path d="M4112 3883 l3 -258 133 -3 132 -3 0 173 c0 146 -3 179 -19 214 -35
77 -126 134 -215 134 l-36 0 2 -257z"/>
<path d="M445 3385 c-76 -21 -185 -79 -241 -129 -68 -60 -138 -165 -172 -256
l-27 -75 -3 -570 c-2 -386 1 -591 8 -634 32 -184 155 -348 323 -431 111 -55
151 -61 420 -67 l247 -6 0 224 c0 123 4 261 10 307 25 218 184 377 402 402
109 13 2187 13 2296 0 175 -20 314 -126 379 -290 15 -38 18 -90 23 -340 l5
-295 245 1 c269 1 321 9 431 64 160 81 286 250 319 429 13 72 13 1120 0 1192
-33 179 -159 348 -319 429 -128 64 28 60 -2237 59 -1702 -1 -2068 -3 -2109
-14z m3495 -470 c41 -21 60 -53 60 -100 -1 -84 -83 -130 -160 -90 -37 19 -50
43 -50 93 0 83 78 134 150 97z m440 0 c41 -21 60 -53 60 -100 -1 -84 -83 -130
-160 -90 -37 19 -50 43 -50 93 0 83 78 134 150 97z"/>
<path d="M1417 1930 c-102 -17 -171 -92 -188 -202 -6 -39 -9 -260 -7 -559 3
-456 4 -497 22 -537 23 -52 92 -115 144 -130 29 -9 333 -12 1174 -12 1262 0
1187 -4 1260 67 70 69 69 53 66 674 l-3 555 -28 42 c-37 56 -92 91 -163 102
-72 12 -2207 11 -2277 0z"/>
</g>
</svg>
